<svg xmlns="http://www.w3.org/2000/svg" xmlns:xlink="http://www.w3.org/1999/xlink" width="320" height="160"
   viewBox="0 0 84.667 42.333">
   <defs>
      <linearGradient id="prefix__a">
         <stop offset="0" stop-color="#08a25e" />
         <stop offset="1" stop-color="#93d602" />
      </linearGradient>
      <linearGradient xlink:href="#prefix__a" id="prefix__b" gradientUnits="userSpaceOnUse" x1="-3.72" y1="226.696"
         x2="-3.72" y2="-35.619" gradientTransform="matrix(.11398 0 0 .11398 66.55 264.89)" />
   </defs>
   <g transform="translate(0 -254.667)">
      <rect width="84.667" height="42.333" y="254.667" ry="6.35" fill="#e3dbdb" />
      <path
         d="M65.403 260.723c-.992-.003-1.982.332-2.736 1.007-1.896 1.58-2.496 4.085-3.481 6.24-.083 1.016-1.049.83-1.805.94-2.047.235-4.134.578-5.984 1.532-.77.503-.204 1.442-.215 2.167.544 4.037 1.088 8.202 3.037 11.844 2.3 4.067 6.942 6.681 11.619 6.48 4.714-.135 9.236-3.074 11.204-7.373 1.598-3.474 2.084-7.32 2.601-11.072.075-.604.33-1.491-.167-1.951-1.911-1.196-4.096-1.335-6.264-1.68-1.175-.12-1.596-.427-1.8-1.315-.897-2.142-1.611-4.562-3.544-6.025a4.177 4.177 0 00-2.465-.794zm-.054 2.577c.73.007 1.445.529 1.808 1.179.883 1.237 1.269 2.729 1.899 4.093a91.688 91.688 0 00-3.67-.07c-1.224.001-2.447.021-3.67.07.803-1.725 1.23-3.779 2.787-5.02.271-.179.56-.255.846-.252zm6.29 11.6c.613-.009 1.173.519 1.161 1.148v.007c.05.94-1.204 1.525-1.893.883-.752-.568-.393-1.903.542-2.018.064-.013.128-.02.19-.02zm-12.436.225c.328.007.654.13.863.396.411.559.188 1.29.245 1.935.454.003.907-.007 1.36.006.993.062 1.303 1.494.576 2.075-.56.412-1.29.188-1.936.246-.002.453.007.907-.005 1.36-.062.992-1.495 1.303-2.076.575-.411-.559-.188-1.29-.245-1.935-.453-.003-.907.007-1.36-.006-.993-.062-1.303-1.494-.576-2.076.56-.411 1.29-.187 1.936-.245v-.949c-.113-.663.355-1.403 1.077-1.378.047-.004.094-.005.14-.004zm9.872 2.339c.612-.008 1.173.52 1.16 1.149v.007c.05.94-1.204 1.525-1.893.882-.752-.568-.393-1.903.542-2.017.064-.013.128-.02.191-.02zm5.13 0c.611-.008 1.172.52 1.16 1.149v.007c.049.94-1.205 1.525-1.894.882-.752-.568-.392-1.903.543-2.017.063-.013.127-.02.19-.02zm-2.565 2.564c.612-.008 1.172.52 1.16 1.15v.006c.05.941-1.204 1.525-1.893.883-.752-.568-.393-1.903.542-2.018.064-.013.128-.02.19-.02z"
         clip-rule="evenodd" fill="url(#prefix__b)" image-rendering="optimizeQuality"
         shape-rendering="geometricPrecision" text-rendering="geometricPrecision" />
      <g fill="#212121">
         <path
            d="M34.796 280.589c.012-4.311-.023-8.623.018-12.933.17-1.674 2.364-2.632 3.728-1.665.925.573 1.214 1.74 1.14 2.764.014 3.591-.073 7.183.023 10.774.169.82 1.206.596 1.82.621 1.338.002 2.736-.216 4.024.228 1.403.653 1.84 2.728.746 3.85-.64.705-1.64.864-2.544.792-1.548-.011-3.098.025-4.645-.02-2.227-.21-4.17-2.174-4.31-4.411zM21.121 286.878c-1.193-.914-1.154-2.977.084-3.835.795-.612 1.849-.457 2.784-.468.999-.003 2.008.063 2.999-.071.524-.225.56-.876.542-1.367-.003-2.086-.037-4.173.022-6.259.198-1.54 2.132-2.494 3.487-1.76 1.012.5 1.494 1.71 1.37 2.794-.02 2.38.051 4.763-.045 7.142-.208 1.94-1.641 3.758-3.578 4.195-1.54.386-3.135.141-4.7.21-1 .011-2.14.094-2.965-.581z"
            clip-rule="evenodd" image-rendering="optimizeQuality" shape-rendering="geometricPrecision"
            text-rendering="geometricPrecision" />
         <path
            d="M18.248 265.502c-3.44-.02-4.645 2.27-4.648 4.617l.015 3.426c-.054 1.39.731 2.304 1.98 2.348l2.29.09c.392.016.509.211.515.559l.005.66c.002.342-.135.464-.583.45l-5.61.057c-.829.013-1.546-.389-1.546-1.584l.017-3.629c0-1.658-.766-3.115-2.53-3.115-1.618 0-2.476 1.08-2.46 3.01l.005 5.744c-.01 3.506 1.77 4.487 4.992 4.49h8.41c2.52 0 4.21-2.108 4.194-4.468l.01-2.546c.006-2.09-1.342-3.964-3.322-4.045l-1.054.008c-.318.003-.405-.205-.404-.455v-.354c0-.295.211-.385.481-.39l2.671-.005c1.55 0 2.436-.877 2.425-2.415-.01-1.43-.97-2.436-2.315-2.46z"
            clip-rule="evenodd" image-rendering="optimizeQuality" shape-rendering="geometricPrecision"
            text-rendering="geometricPrecision" />
         <path
            d="M32.363 268.022a2.413 2.413 0 01-2.41 2.413 2.413 2.413 0 01-2.415-2.406 2.413 2.413 0 012.403-2.42 2.413 2.413 0 012.422 2.4M37.145 287.453a2.413 2.413 0 01-2.409 2.413 2.413 2.413 0 01-2.416-2.406 2.413 2.413 0 012.403-2.42 2.413 2.413 0 012.422 2.4" />
      </g>
   </g>
</svg>