<svg xmlns="http://www.w3.org/2000/svg" width="320" height="160" viewBox="0 0 84.667 42.333"><defs><linearGradient id="prefix__a"><stop offset="0" stop-color="#08a25e"/><stop offset="1" stop-color="#93d602"/></linearGradient><linearGradient gradientUnits="userSpaceOnUse" y2="50.593" x2="25" y1=".593" x1="25" id="prefix__b" gradientTransform="matrix(.52917 0 0 .52917 50.807 7.624)"><stop stop-color="#97D700"/><stop stop-color="#009F64" offset="1"/></linearGradient><linearGradient gradientUnits="userSpaceOnUse" y2="33.371" x2="42.669" y1="33.371" x1="30.244" id="prefix__c" gradientTransform="matrix(.52917 0 0 .52917 10.582 -81.695)"><stop stop-color="#97D701"/><stop stop-color="#01A065" offset="1"/></linearGradient></defs><rect ry="6.35" height="42.333" width="84.667" fill="#e3dbdb"/><g fill="#212121"><path d="M34.796 25.922s-.017-7.857.009-11.784c-.15-1.781 1.29-3.119 2.665-3.123 1.562.061 2.285 1.82 2.212 3.073l.023 10.036c0 1.057.573 1.275 1.346 1.306l3.065.028c1.532.044 2.79.795 2.79 2.38.028 1.56-1.043 2.515-2.733 2.515l-5.067-.02c-2.138 0-4.31-1.488-4.31-4.411zm-14.545 4.382c0-1.634 1.096-2.405 2.66-2.405l3.352.044c.71 0 1.267-.494 1.267-1.328l-.004-5.732c0-1.32.953-2.625 2.365-2.625 1.694 0 2.518 1.324 2.518 2.737l.028 6.319c0 3.49-2.48 5.497-5.941 5.493l-3.268-.006c-1.681 0-2.967-.91-2.977-2.496z" clip-rule="evenodd" image-rendering="optimizeQuality" shape-rendering="geometricPrecision" text-rendering="geometricPrecision"/><path d="M18.248 10.835c-3.44-.02-4.645 2.27-4.648 4.617l.015 3.426c-.054 1.39.731 2.304 1.98 2.348l2.237.083c.48 0 .592.499.592.89 0 .462-.154.8-.602.786l-5.61.057c-.829.013-1.546-.389-1.546-1.584l.017-3.629c0-1.882-.654-3.115-2.418-3.115-1.72 0-2.588 1.08-2.572 3.01l.005 5.744c-.01 3.506 1.77 4.487 4.992 4.49h8.41c2.52 0 4.21-2.108 4.194-4.468l.01-2.546c.006-2.09-1.277-3.955-3.257-4.036h-.942c-.402.003-.592-.252-.59-.651 0-.294.205-.53.537-.549l2.624-.005c1.55 0 2.436-.877 2.425-2.415-.01-1.43-.97-2.436-2.315-2.46z" clip-rule="evenodd" image-rendering="optimizeQuality" shape-rendering="geometricPrecision" text-rendering="geometricPrecision"/><path d="M32.363 13.355a2.413 2.413 0 01-2.41 2.413 2.413 2.413 0 01-2.415-2.406 2.413 2.413 0 012.403-2.42 2.413 2.413 0 012.422 2.4m4.782 19.444a2.413 2.413 0 01-2.409 2.413 2.413 2.413 0 01-2.416-2.406 2.413 2.413 0 012.403-2.42 2.413 2.413 0 012.422 2.4"/></g><path d="M64.036 34.396c7.307 0 13.23-5.923 13.23-13.23 0-7.306-5.923-13.229-13.23-13.229-7.306 0-13.229 5.923-13.229 13.23 0 7.306 5.923 13.229 13.23 13.229z" fill="url(#prefix__b)"/><rect x="24.547" y="-64.772" width="8.614" height="1.471" rx=".735" transform="rotate(90)" fill="url(#prefix__c)"/><path d="M55.526 18.066l1.73.027c.336.022.421.336.432.573l-.013 1.551c0 .951-1.16.361-1.889-.427-.629-.629-1.198-1.724-.26-1.724zm17.012 0l-1.73.027c-.336.022-.421.336-.432.573l.012 1.551c0 .951 1.16.361 1.89-.427.629-.629 1.198-1.724.26-1.724zm-14.285-2.674c-.009-.47.492-.571.862-.53H69.29c.47-.008.571.492.53.862v1.008h4.377c.882.14.367 1.253.277 1.82-.574 2.12-2.347 3.929-4.54 4.32-.713-.031-.614.952-1.058 1.363a5.795 5.795 0 01-3.845 2.531c.359-.019.798-.005.978.37.288.478-.166 1.127-.712 1.043-.918-.01-1.838.018-2.755-.015-.564-.086-.765-.896-.306-1.236.222-.202.531-.157.806-.162-2.045-.335-3.83-1.866-4.481-3.832-2.203-.213-4.096-1.87-4.816-3.929-.165-.667-.567-1.466-.242-2.118.306-.256.73-.121 1.097-.155h3.653zm5.515 1.71c.26-.354.593.01.718.278.278.403.52.834.821 1.218.567.229 1.174.356 1.747.57.328.225.054.573-.125.79-.274.393-.588.761-.836 1.17-.032.635.04 1.276.021 1.913-.095.393-.512.23-.764.117-.44-.15-.866-.348-1.314-.468-.588.165-1.148.434-1.733.613-.397.015-.363-.434-.343-.71.002-.488.049-.979.02-1.465-.33-.533-.75-1.01-1.093-1.535-.144-.375.28-.5.553-.566.44-.147.898-.25 1.325-.429.363-.475.665-1.001 1.003-1.496z" clip-rule="evenodd" fill="#fff" fill-rule="evenodd"/></svg>