<svg width="50" height="51" viewBox="0 0 50 51" fill="none" xmlns="http://www.w3.org/2000/svg">
<path d="M25 50.5928C38.8071 50.5928 50 39.3999 50 25.5928C50 11.7857 38.8071 0.592819 25 0.592819C11.1929 0.592819 0 11.7857 0 25.5928C0 39.3999 11.1929 50.5928 25 50.5928Z" fill="url(#paint0_linear_2628:4476)"/>
<rect x="26.3898" y="31.9808" width="16.2793" height="2.77958" rx="1.38979" transform="rotate(90 26.3898 31.9808)" fill="url(#paint1_linear_2628:4476)"/>
<path fill-rule="evenodd" clip-rule="evenodd" d="M14.0717 14.6799C14.0717 14.1277 14.5194 13.6799 15.0717 13.6799H34.9283C35.4806 13.6799 35.9283 14.1277 35.9283 14.6799V17.2122H44.2008C44.753 17.2122 45.2049 17.6606 45.1614 18.2112C45.0663 19.4154 44.7996 20.5988 44.369 21.7191C43.8199 23.148 43.0151 24.4463 42.0005 25.54C40.9859 26.6336 39.7814 27.5011 38.4557 28.0929C37.4617 28.5367 36.4143 28.819 35.3475 28.9325C34.0768 32.6641 30.8442 35.4882 26.879 36.1753H27.5544C28.2913 36.1753 28.8887 36.7728 28.8887 37.5097C28.8887 38.2467 28.2913 38.8441 27.5544 38.8441H22.4457C21.7088 38.8441 21.1114 38.2467 21.1114 37.5097C21.1114 36.7728 21.7088 36.1753 22.4457 36.1753H23.121C19.1558 35.4882 15.9232 32.6642 14.6525 28.9325C13.5857 28.819 12.5383 28.5367 11.5443 28.093C10.2186 27.5011 9.01412 26.6336 7.99951 25.54C6.9849 24.4463 6.18007 23.148 5.63097 21.7191C5.20044 20.5988 4.93374 19.4155 4.83862 18.2112C4.79514 17.6606 5.24696 17.2122 5.79924 17.2122H14.0717V14.6799ZM41.5912 20.7188C41.6921 20.1758 41.235 19.7244 40.6827 19.7244H37.9833C37.431 19.7244 36.9833 20.1722 36.9833 20.7244V23.7898C36.9833 24.3421 37.4366 24.8009 37.9746 24.6758C38.25 24.6118 38.5201 24.521 38.7817 24.4042C39.3518 24.1497 39.8699 23.7766 40.3063 23.3062C40.7426 22.8358 41.0888 22.2774 41.325 21.6629C41.4423 21.3575 41.5313 21.0413 41.5912 20.7188ZM9.31731 19.7244C8.76502 19.7244 8.3079 20.1758 8.40876 20.7188C8.46866 21.0413 8.5577 21.3575 8.67503 21.6629C8.9112 22.2774 9.25735 22.8358 9.69373 23.3062C10.1301 23.7765 10.6482 24.1496 11.2183 24.4042C11.4799 24.521 11.75 24.6117 12.0254 24.6758C12.5633 24.8009 13.0167 24.3421 13.0167 23.7898V20.7244C13.0167 20.1721 12.569 19.7244 12.0167 19.7244H9.31731ZM24.4939 17.9117C24.7376 17.5398 25.2624 17.5398 25.5061 17.9117L27.2567 20.5835C27.3365 20.7053 27.4539 20.7945 27.5893 20.8363L30.5596 21.7521C30.9731 21.8796 31.1352 22.4016 30.8724 22.759L28.984 25.3261C28.8979 25.4431 28.8531 25.5875 28.857 25.735L28.9421 28.9729C28.9539 29.4236 28.5294 29.7462 28.1233 29.5951L25.2056 28.5099C25.0726 28.4604 24.9274 28.4604 24.7944 28.5099L21.8767 29.5951C21.4706 29.7462 21.0461 29.4236 21.0579 28.9729L21.143 25.735C21.1469 25.5875 21.1021 25.4431 21.016 25.3261L19.1276 22.759C18.8648 22.4016 19.0269 21.8796 19.4404 21.7521L22.4107 20.8363C22.5461 20.7945 22.6635 20.7053 22.7433 20.5835L24.4939 17.9117Z" fill="white"/>
<defs>
<linearGradient id="paint0_linear_2628:4476" x1="25" y1="0.592819" x2="25" y2="50.5928" gradientUnits="userSpaceOnUse">
<stop stop-color="#97D700"/>
<stop offset="0.630208" stop-color="#50BC25"/>
<stop offset="1" stop-color="#009F64"/>
</linearGradient>
<linearGradient id="paint1_linear_2628:4476" x1="30.2436" y1="33.3706" x2="42.6692" y2="33.3706" gradientUnits="userSpaceOnUse">
<stop stop-color="#97D701"/>
<stop offset="1" stop-color="#01A065"/>
</linearGradient>
</defs>
</svg>
