<svg xmlns="http://www.w3.org/2000/svg" width="128" height="128" viewBox="0 0 33.867 33.867">
   <g transform="translate(0 -263.133)">
      <rect width="32.808" height="32.808" x=".529" y="263.663" ry="1.587" fill="#fff" fill-opacity=".267" stroke="#000"
         stroke-width=".873" stroke-linecap="round" stroke-linejoin="round" stroke-opacity=".608" />
      <path
         d="M22.21 268.328l-6.49 1.735-.844 1.688-1.935-.15-4.632 4.791 4.748 4.752 1.874-.121.876 1.754 6.465 1.617 1.741-6.49-1.052-1.56 1.081-1.61zm-2.207 2.254L17.3 275.22l-.398.356-5.51.039 3.518-3.806zm1.339.803l1.548 4.951-1.467 5.018-2.849-4.839.01-.384zm-9.976 5.792l5.534.045.515.241 2.644 4.65-5.098-1.155z"
         fill="#020000" /><text y="293.125" x="16.27"
         style="line-height:0;-inkscape-font-specification:'Bahnschrift Bold';text-align:center" font-weight="700"
         font-size="8.148" font-family="Bahnschrift" letter-spacing="0" word-spacing="0" text-anchor="middle"
         stroke-width=".873">
         <tspan style="-inkscape-font-specification:'Bahnschrift Bold'" y="293.125" x="16.27" font-size="8.114">unity
         </tspan>
      </text>
   </g>
</svg>